<mxfile host="app.diagrams.net" agent="Mozilla/5.0 (Windows NT 10.0; Win64; x64) AppleWebKit/537.36 (KHTML, like Gecko) Chrome/134.0.0.0 Safari/537.36 OPR/119.0.0.0" version="27.0.4" pages="2">
  <diagram name="Página-1" id="aDhZ-OPljT1riyZXtAfU">
    <mxGraphModel dx="1251" dy="674" grid="1" gridSize="10" guides="1" tooltips="1" connect="1" arrows="0" fold="1" page="1" pageScale="1" pageWidth="827" pageHeight="1169" math="0" shadow="0">
      <root>
        <mxCell id="0" />
        <mxCell id="1" parent="0" />
        <mxCell id="oa1QGvFLgXzbqehos-T0-7" value="Mostrar todas&lt;div&gt;as cartas&lt;/div&gt;" style="ellipse;whiteSpace=wrap;html=1;" parent="1" vertex="1">
          <mxGeometry x="146" y="260" width="120" height="80" as="geometry" />
        </mxCell>
        <mxCell id="oa1QGvFLgXzbqehos-T0-9" value="&lt;font style=&quot;font-size: 10px;&quot;&gt;Front-&lt;/font&gt;&lt;span style=&quot;font-size: 10px; background-color: transparent; color: light-dark(rgb(0, 0, 0), rgb(255, 255, 255));&quot;&gt;end&lt;/span&gt;" style="shape=umlFrame;whiteSpace=wrap;html=1;pointerEvents=0;align=center;" parent="1" vertex="1">
          <mxGeometry x="130" y="210" width="540" height="160" as="geometry" />
        </mxCell>
        <mxCell id="oa1QGvFLgXzbqehos-T0-10" value="Mostrar baralho do jogador" style="ellipse;whiteSpace=wrap;html=1;" parent="1" vertex="1">
          <mxGeometry x="520" y="260" width="120" height="80" as="geometry" />
        </mxCell>
        <mxCell id="oa1QGvFLgXzbqehos-T0-11" value="Database" style="shape=cylinder3;whiteSpace=wrap;html=1;boundedLbl=1;backgroundOutline=1;size=15;" parent="1" vertex="1">
          <mxGeometry x="378" y="420" width="86" height="120" as="geometry" />
        </mxCell>
        <mxCell id="oa1QGvFLgXzbqehos-T0-16" value="&lt;font style=&quot;font-size: 10px;&quot;&gt;Back-&lt;/font&gt;&lt;span style=&quot;font-size: 10px; background-color: transparent; color: light-dark(rgb(0, 0, 0), rgb(255, 255, 255));&quot;&gt;end&lt;/span&gt;" style="shape=umlFrame;whiteSpace=wrap;html=1;pointerEvents=0;align=center;" parent="1" vertex="1">
          <mxGeometry x="264" y="400" width="300" height="160" as="geometry" />
        </mxCell>
        <mxCell id="oa1QGvFLgXzbqehos-T0-17" value="SPA (React)" style="text;html=1;align=center;verticalAlign=middle;whiteSpace=wrap;rounded=0;" parent="1" vertex="1">
          <mxGeometry x="596" y="210" width="74" height="30" as="geometry" />
        </mxCell>
        <mxCell id="oa1QGvFLgXzbqehos-T0-18" value="User&lt;div&gt;&lt;br&gt;&lt;/div&gt;" style="shape=umlActor;verticalLabelPosition=bottom;verticalAlign=top;html=1;outlineConnect=0;" parent="1" vertex="1">
          <mxGeometry x="60" y="240" width="30" height="60" as="geometry" />
        </mxCell>
        <mxCell id="oa1QGvFLgXzbqehos-T0-24" style="rounded=0;orthogonalLoop=1;jettySize=auto;html=1;exitX=0.5;exitY=0.5;exitDx=0;exitDy=0;exitPerimeter=0;" parent="1" source="oa1QGvFLgXzbqehos-T0-18" edge="1">
          <mxGeometry relative="1" as="geometry">
            <mxPoint x="132" y="270" as="targetPoint" />
          </mxGeometry>
        </mxCell>
        <mxCell id="lToIrANrXexFe-QB8JkS-2" value="SOA (FastAPI)" style="text;html=1;align=center;verticalAlign=middle;whiteSpace=wrap;rounded=0;" parent="1" vertex="1">
          <mxGeometry x="464" y="400" width="100" height="30" as="geometry" />
        </mxCell>
        <mxCell id="-xkdgGW0YXO3pTMAVrUk-1" value="Mostrar&amp;nbsp;&lt;span style=&quot;background-color: transparent; color: light-dark(rgb(0, 0, 0), rgb(255, 255, 255));&quot;&gt;as cartas&lt;/span&gt;&lt;div&gt;&lt;span style=&quot;background-color: transparent; color: light-dark(rgb(0, 0, 0), rgb(255, 255, 255));&quot;&gt;já vistas&lt;/span&gt;&lt;/div&gt;" style="ellipse;whiteSpace=wrap;html=1;" vertex="1" parent="1">
          <mxGeometry x="344" y="260" width="120" height="80" as="geometry" />
        </mxCell>
        <mxCell id="-xkdgGW0YXO3pTMAVrUk-2" style="rounded=0;orthogonalLoop=1;jettySize=auto;html=1;exitX=0.532;exitY=0.997;exitDx=0;exitDy=0;exitPerimeter=0;entryX=0.511;entryY=-0.003;entryDx=0;entryDy=0;entryPerimeter=0;" edge="1" parent="1" source="oa1QGvFLgXzbqehos-T0-9" target="oa1QGvFLgXzbqehos-T0-16">
          <mxGeometry relative="1" as="geometry">
            <mxPoint x="85" y="280" as="sourcePoint" />
            <mxPoint x="142" y="280" as="targetPoint" />
          </mxGeometry>
        </mxCell>
      </root>
    </mxGraphModel>
  </diagram>
  <diagram id="77RE7BL7swbPXcNDpUzt" name="Página-2">
    <mxGraphModel dx="1251" dy="674" grid="1" gridSize="10" guides="1" tooltips="1" connect="1" arrows="1" fold="1" page="1" pageScale="1" pageWidth="827" pageHeight="1169" math="0" shadow="0">
      <root>
        <mxCell id="0" />
        <mxCell id="1" parent="0" />
        <mxCell id="82B5yOi5rEgg4CQ7hs7O-8" value="Pokemon" style="swimlane;fontStyle=1;align=center;verticalAlign=top;childLayout=stackLayout;horizontal=1;startSize=26;horizontalStack=0;resizeParent=1;resizeParentMax=0;resizeLast=0;collapsible=1;marginBottom=0;whiteSpace=wrap;html=1;" vertex="1" parent="1">
          <mxGeometry x="319" y="130" width="180" height="170" as="geometry" />
        </mxCell>
        <mxCell id="82B5yOi5rEgg4CQ7hs7O-9" value="&lt;div&gt;+ hp: int&lt;/div&gt;&lt;div&gt;+ id: int&lt;/div&gt;&lt;div&gt;+ original_name: str&lt;br&gt;&lt;div&gt;+ skill: string&lt;/div&gt;&lt;div&gt;+ description: string&lt;/div&gt;&lt;div&gt;+ type: string&lt;/div&gt;&lt;div&gt;+ name: string&lt;/div&gt;&lt;div&gt;+ viewed: bool&lt;/div&gt;&lt;div&gt;+ on_deck: bool&lt;/div&gt;&lt;/div&gt;" style="text;strokeColor=none;fillColor=none;align=left;verticalAlign=top;spacingLeft=4;spacingRight=4;overflow=hidden;rotatable=0;points=[[0,0.5],[1,0.5]];portConstraint=eastwest;whiteSpace=wrap;html=1;" vertex="1" parent="82B5yOi5rEgg4CQ7hs7O-8">
          <mxGeometry y="26" width="180" height="144" as="geometry" />
        </mxCell>
        <mxCell id="82B5yOi5rEgg4CQ7hs7O-11" value="&lt;div&gt;&lt;span style=&quot;color: rgba(0, 0, 0, 0); font-family: monospace; font-size: 0px; text-wrap-mode: nowrap;&quot;&gt;%3CmxGraphModel%3E%3Croot%3E%3CmxCell%20id%3D%220%22%2F%3E%3CmxCell%20id%3D%221%22%20parent%3D%220%22%2F%3E%3CmxCell%20id%3D%222%22%20value%3D%22%2B%20is_on_deck(%20)%3A%20bool%22%20style%3D%22text%3BstrokeColor%3Dnone%3BfillColor%3Dnone%3Balign%3Dleft%3BverticalAlign%3Dtop%3BspacingLeft%3D4%3BspacingRight%3D4%3Boverflow%3Dhidden%3Brotatable%3D0%3Bpoints%3D%5B%5B0%2C0.5%5D%2C%5B1%2C0.5%5D%5D%3BportConstraint%3Deastwest%3BwhiteSpace%3Dwrap%3Bhtml%3D1%3B%22%20vertex%3D%221%22%20parent%3D%221%22%3E%3CmxGeometry%20x%3D%22440%22%20y%3D%221180%22%20width%3D%22190%22%20height%3D%2226%22%20as%3D%&lt;/span&gt;&lt;/div&gt;" style="text;strokeColor=none;fillColor=none;align=left;verticalAlign=top;spacingLeft=4;spacingRight=4;overflow=hidden;rotatable=0;points=[[0,0.5],[1,0.5]];portConstraint=eastwest;whiteSpace=wrap;html=1;" vertex="1" parent="1">
          <mxGeometry x="329" y="400" width="180" height="8" as="geometry" />
        </mxCell>
        <mxCell id="82B5yOi5rEgg4CQ7hs7O-14" value="pokemon_service" style="swimlane;fontStyle=1;align=center;verticalAlign=top;childLayout=stackLayout;horizontal=1;startSize=26;horizontalStack=0;resizeParent=1;resizeParentMax=0;resizeLast=0;collapsible=1;marginBottom=0;whiteSpace=wrap;html=1;" vertex="1" parent="1">
          <mxGeometry x="319" y="350" width="180" height="140" as="geometry" />
        </mxCell>
        <mxCell id="82B5yOi5rEgg4CQ7hs7O-15" value="&lt;div&gt;&lt;span style=&quot;background-color: transparent; color: light-dark(rgb(0, 0, 0), rgb(255, 255, 255));&quot;&gt;+ get_all( )&lt;/span&gt;&lt;/div&gt;&lt;div&gt;+ get_seen( )&lt;/div&gt;&lt;div&gt;&lt;div&gt;&lt;span style=&quot;background-color: transparent; color: light-dark(rgb(0, 0, 0), rgb(255, 255, 255));&quot;&gt;+ get_deck( )&lt;/span&gt;&lt;/div&gt;&lt;div&gt;+ mark_as_seen&lt;span style=&quot;background-color: transparent; color: light-dark(rgb(0, 0, 0), rgb(255, 255, 255));&quot;&gt;( id: int )&lt;/span&gt;&lt;/div&gt;&lt;div&gt;&lt;div&gt;+ add_to_deck( id: int )&lt;/div&gt;&lt;div&gt;&lt;div&gt;&lt;span style=&quot;background-color: transparent; color: light-dark(rgb(0, 0, 0), rgb(255, 255, 255));&quot;&gt;+ remove_from_deck( )&lt;/span&gt;&lt;/div&gt;&lt;div&gt;+ reset_all( )&lt;/div&gt;&lt;/div&gt;&lt;/div&gt;&lt;/div&gt;" style="text;strokeColor=none;fillColor=none;align=left;verticalAlign=top;spacingLeft=4;spacingRight=4;overflow=hidden;rotatable=0;points=[[0,0.5],[1,0.5]];portConstraint=eastwest;whiteSpace=wrap;html=1;" vertex="1" parent="82B5yOi5rEgg4CQ7hs7O-14">
          <mxGeometry y="26" width="180" height="114" as="geometry" />
        </mxCell>
        <mxCell id="waYyc5kqo-I8fjYUCbqw-1" value="" style="endArrow=none;endFill=1;endSize=12;html=1;rounded=0;exitX=0.5;exitY=0;exitDx=0;exitDy=0;entryX=0.499;entryY=1.022;entryDx=0;entryDy=0;entryPerimeter=0;startFill=0;" edge="1" parent="1" source="82B5yOi5rEgg4CQ7hs7O-14" target="82B5yOi5rEgg4CQ7hs7O-9">
          <mxGeometry width="160" relative="1" as="geometry">
            <mxPoint x="579" y="400" as="sourcePoint" />
            <mxPoint x="639" y="350" as="targetPoint" />
          </mxGeometry>
        </mxCell>
      </root>
    </mxGraphModel>
  </diagram>
</mxfile>
